<?xml version="1.0" encoding="utf-8"?>
<!-- Generated by Mocodo 4.3.2 -->
<svg width="622" height="567" viewBox="0 0 622 567" xmlns="http://www.w3.org/2000/svg">
<rect x="0" y="0" width="622" height="567" fill="#f7f7f7" stroke="none" stroke-width="0"/>

<!-- Association RECEVOIR -->
<g>
	<line x1="199" y1="77" x2="69" y2="77" stroke="#e08214" stroke-width="2"/>
	<line x1="69" y1="288" x2="69" y2="77" stroke="#e08214" stroke-width="2"/>
	<g>
		<path d="M94 52 a14 14 90 0 1 14 14 V77 h-78 V66 a14 14 90 0 1 14 -14" fill="#fdb863" stroke="#fdb863" stroke-width="0"/>
		<path d="M108 77 v11 a14 14 90 0 1 -14 14 H44 a14 14 90 0 1 -14 -14 V77 H78" fill="#fee0b6" stroke="#fee0b6" stroke-width="0"/>
		<rect x="30" y="52" width="78" height="50" fill="none" rx="14" stroke="#e08214" stroke-width="2"/>
		<line x1="30" y1="77" x2="108" y2="77" stroke="#e08214" stroke-width="1"/>
		<text x="37" y="69.75" fill="#000000" font-family="Verdana" font-size="12">RECEVOIR</text>
	</g>
	<text x="127" y="94" fill="#542788" font-family="Verdana" font-size="12">0,N</text>
	<text x="74" y="153" fill="#542788" font-family="Verdana" font-size="12">1,1</text>
</g>

<!-- Association LAISSER -->
<g>
	<line x1="357" y1="288" x2="357" y2="77" stroke="#e08214" stroke-width="2"/>
	<line x1="199" y1="77" x2="357" y2="77" stroke="#e08214" stroke-width="2"/>
	<g>
		<path d="M377 52 a14 14 90 0 1 14 14 V77 h-68 V66 a14 14 90 0 1 14 -14" fill="#fdb863" stroke="#fdb863" stroke-width="0"/>
		<path d="M391 77 v11 a14 14 90 0 1 -14 14 H337 a14 14 90 0 1 -14 -14 V77 H68" fill="#fee0b6" stroke="#fee0b6" stroke-width="0"/>
		<rect x="323" y="52" width="68" height="50" fill="none" rx="14" stroke="#e08214" stroke-width="2"/>
		<line x1="323" y1="77" x2="391" y2="77" stroke="#e08214" stroke-width="1"/>
		<text x="331" y="69.75" fill="#000000" font-family="Verdana" font-size="12">LAISSER</text>
	</g>
	<text x="362" y="187" fill="#542788" font-family="Verdana" font-size="12">1,1</text>
	<text x="249" y="94" fill="#542788" font-family="Verdana" font-size="12">0,N</text>
</g>

<!-- Association REALISER -->
<g>
	<line x1="357" y1="288" x2="199" y2="288" stroke="#e08214" stroke-width="2"/>
	<line x1="199" y1="499" x2="199" y2="288" stroke="#e08214" stroke-width="2"/>
	<g>
		<path d="M223 263 a14 14 90 0 1 14 14 V288 h-76 V277 a14 14 90 0 1 14 -14" fill="#fdb863" stroke="#fdb863" stroke-width="0"/>
		<path d="M237 288 v11 a14 14 90 0 1 -14 14 H175 a14 14 90 0 1 -14 -14 V288 H76" fill="#fee0b6" stroke="#fee0b6" stroke-width="0"/>
		<rect x="161" y="263" width="76" height="50" fill="none" rx="14" stroke="#e08214" stroke-width="2"/>
		<line x1="161" y1="288" x2="237" y2="288" stroke="#e08214" stroke-width="1"/>
		<text x="169" y="280.75" fill="#000000" font-family="Verdana" font-size="12">REALISER</text>
	</g>
	<text x="243" y="305" fill="#542788" font-family="Verdana" font-size="12">1,1</text>
	<text x="204" y="432" fill="#542788" font-family="Verdana" font-size="12">0,N</text>
</g>

<!-- Association LIEE -->
<g>
	<line x1="357" y1="288" x2="518" y2="288" stroke="#e08214" stroke-width="2"/>
	<line x1="518" y1="77" x2="518" y2="288" stroke="#e08214" stroke-width="2"/>
	<g>
		<path d="M525 263 a14 14 90 0 1 14 14 V288 h-42 V277 a14 14 90 0 1 14 -14" fill="#fdb863" stroke="#fdb863" stroke-width="0"/>
		<path d="M539 288 v11 a14 14 90 0 1 -14 14 H511 a14 14 90 0 1 -14 -14 V288 H42" fill="#fee0b6" stroke="#fee0b6" stroke-width="0"/>
		<rect x="497" y="263" width="42" height="50" fill="none" rx="14" stroke="#e08214" stroke-width="2"/>
		<line x1="497" y1="288" x2="539" y2="288" stroke="#e08214" stroke-width="1"/>
		<text x="504" y="280.75" fill="#000000" font-family="Verdana" font-size="12">LIEE</text>
	</g>
	<text x="450" y="305" fill="#542788" font-family="Verdana" font-size="12">1,1</text>
	<text x="523" y="162" fill="#542788" font-family="Verdana" font-size="12">0,1</text>
</g>

<!-- Association CONCERNE -->
<g>
	<line x1="199" y1="499" x2="69" y2="499" stroke="#e08214" stroke-width="2"/>
	<line x1="69" y1="288" x2="69" y2="499" stroke="#e08214" stroke-width="2"/>
	<g>
		<path d="M97 474 a14 14 90 0 1 14 14 V499 h-84 V488 a14 14 90 0 1 14 -14" fill="#fdb863" stroke="#fdb863" stroke-width="0"/>
		<path d="M111 499 v11 a14 14 90 0 1 -14 14 H41 a14 14 90 0 1 -14 -14 V499 H84" fill="#fee0b6" stroke="#fee0b6" stroke-width="0"/>
		<rect x="27" y="474" width="84" height="50" fill="none" rx="14" stroke="#e08214" stroke-width="2"/>
		<line x1="27" y1="499" x2="111" y2="499" stroke="#e08214" stroke-width="1"/>
		<text x="35" y="491.75" fill="#000000" font-family="Verdana" font-size="12">CONCERNE</text>
	</g>
	<text x="117" y="516" fill="#542788" font-family="Verdana" font-size="12">0,N</text>
	<text x="74" y="432" fill="#542788" font-family="Verdana" font-size="12">1,1</text>
</g>

<!-- Association AVOIR -->
<g>
	<line x1="357" y1="288" x2="357" y2="499" stroke="#e08214" stroke-width="2"/>
	<line x1="518" y1="499" x2="357" y2="499" stroke="#e08214" stroke-width="2"/>
	<g>
		<path d="M370 474 a14 14 90 0 1 14 14 V499 h-54 V488 a14 14 90 0 1 14 -14" fill="#fdb863" stroke="#fdb863" stroke-width="0"/>
		<path d="M384 499 v11 a14 14 90 0 1 -14 14 H344 a14 14 90 0 1 -14 -14 V499 H54" fill="#fee0b6" stroke="#fee0b6" stroke-width="0"/>
		<rect x="330" y="474" width="54" height="50" fill="none" rx="14" stroke="#e08214" stroke-width="2"/>
		<line x1="330" y1="499" x2="384" y2="499" stroke="#e08214" stroke-width="1"/>
		<text x="337" y="491.75" fill="#000000" font-family="Verdana" font-size="12">AVOIR</text>
	</g>
	<text x="362" y="398" fill="#542788" font-family="Verdana" font-size="12">1,N</text>
	<text x="451" y="516" fill="#542788" font-family="Verdana" font-size="12">1,1</text>
</g>

<!-- Entity AVIS -->
<g>
	<g>
		<rect x="154" y="18" width="90" height="25" fill="#b2abd2" stroke="none" stroke-width="0" opacity="1"/>
		<rect x="154" y="43" width="90" height="93" fill="#d8daeb" stroke="none" stroke-width="0" opacity="1"/>
		<rect x="154" y="18" width="90" height="118" fill="none" stroke="#8073ac" stroke-width="2" opacity="1"/>
		<line x1="154" y1="43" x2="244" y2="43" stroke="#8073ac" stroke-width="1"/>
	</g>
	<text x="184" y="35.75" fill="#000000" font-family="Verdana" font-size="12">AVIS</text>
	<text x="159" y="60.8" fill="#000000" font-family="Verdana" font-size="12">code_avis:</text>
	<line x1="159" y1="63" x2="225" y2="63" stroke="#000000" stroke-width="1"/>
	<text x="159" y="77.8" fill="#000000" font-family="Verdana" font-size="12">id</text>
	<text x="159" y="94.8" fill="#000000" font-family="Verdana" font-size="12">commentaire</text>
	<text x="159" y="111.8" fill="#000000" font-family="Verdana" font-size="12">note</text>
	<text x="159" y="128.8" fill="#000000" font-family="Verdana" font-size="12">date_avis</text>
</g>

<!-- Entity LOGS_RGPD_SUPPRESSIONS -->
<g>
	<g>
		<rect x="423" y="9" width="190" height="25" fill="#b2abd2" stroke="none" stroke-width="0" opacity="1"/>
		<rect x="423" y="34" width="190" height="111" fill="#d8daeb" stroke="none" stroke-width="0" opacity="1"/>
		<rect x="423" y="9" width="190" height="136" fill="none" stroke="#8073ac" stroke-width="2" opacity="1"/>
		<line x1="423" y1="34" x2="613" y2="34" stroke="#8073ac" stroke-width="1"/>
	</g>
	<text x="428" y="26.75" fill="#000000" font-family="Verdana" font-size="12">LOGS_RGPD_SUPPRESSIONS</text>
	<text x="428" y="51.8" fill="#000000" font-family="Verdana" font-size="12">code_logs:</text>
	<line x1="428" y1="54" x2="495" y2="54" stroke="#000000" stroke-width="1"/>
	<text x="428" y="68.8" fill="#000000" font-family="Verdana" font-size="12">id</text>
	<text x="428" y="85.8" fill="#000000" font-family="Verdana" font-size="12">nom</text>
	<text x="428" y="102.8" fill="#000000" font-family="Verdana" font-size="12">email</text>
	<text x="428" y="119.8" fill="#000000" font-family="Verdana" font-size="12">date_suppression</text>
	<text x="428" y="136.8" fill="#000000" font-family="Verdana" font-size="12">raison</text>
</g>

<!-- Entity LIVRES -->
<g>
	<g>
		<rect x="9" y="161" width="120" height="25" fill="#b2abd2" stroke="none" stroke-width="0" opacity="1"/>
		<rect x="9" y="186" width="120" height="229" fill="#d8daeb" stroke="none" stroke-width="0" opacity="1"/>
		<rect x="9" y="161" width="120" height="254" fill="none" stroke="#8073ac" stroke-width="2" opacity="1"/>
		<line x1="9" y1="186" x2="129" y2="186" stroke="#8073ac" stroke-width="1"/>
	</g>
	<text x="47" y="178.75" fill="#000000" font-family="Verdana" font-size="12">LIVRES</text>
	<text x="14" y="203.8" fill="#000000" font-family="Verdana" font-size="12">code_livres:</text>
	<line x1="14" y1="206" x2="88" y2="206" stroke="#000000" stroke-width="1"/>
	<text x="14" y="220.8" fill="#000000" font-family="Verdana" font-size="12">id</text>
	<text x="14" y="237.8" fill="#000000" font-family="Verdana" font-size="12">titre</text>
	<text x="14" y="254.8" fill="#000000" font-family="Verdana" font-size="12">auteur</text>
	<text x="14" y="271.8" fill="#000000" font-family="Verdana" font-size="12">description</text>
	<text x="14" y="288.8" fill="#000000" font-family="Verdana" font-size="12">categorie</text>
	<text x="14" y="305.8" fill="#000000" font-family="Verdana" font-size="12">disponible</text>
	<text x="14" y="322.8" fill="#000000" font-family="Verdana" font-size="12">image_url</text>
	<text x="14" y="339.8" fill="#000000" font-family="Verdana" font-size="12">stock</text>
	<text x="14" y="356.8" fill="#000000" font-family="Verdana" font-size="12">extrait</text>
	<text x="14" y="373.8" fill="#000000" font-family="Verdana" font-size="12">contenu</text>
	<text x="14" y="390.8" fill="#000000" font-family="Verdana" font-size="12">date_ajout</text>
	<text x="14" y="407.8" fill="#000000" font-family="Verdana" font-size="12">date_modification</text>
</g>

<!-- Entity UTILISATEURS -->
<g>
	<g>
		<rect x="269" y="195" width="176" height="25" fill="#b2abd2" stroke="none" stroke-width="0" opacity="1"/>
		<rect x="269" y="220" width="176" height="161" fill="#d8daeb" stroke="none" stroke-width="0" opacity="1"/>
		<rect x="269" y="195" width="176" height="186" fill="none" stroke="#8073ac" stroke-width="2" opacity="1"/>
		<line x1="269" y1="220" x2="445" y2="220" stroke="#8073ac" stroke-width="1"/>
	</g>
	<text x="312" y="212.75" fill="#000000" font-family="Verdana" font-size="12">UTILISATEURS</text>
	<text x="274" y="237.8" fill="#000000" font-family="Verdana" font-size="12">code_utilisateurs:</text>
	<line x1="274" y1="240" x2="383" y2="240" stroke="#000000" stroke-width="1"/>
	<text x="274" y="254.8" fill="#000000" font-family="Verdana" font-size="12">id</text>
	<text x="274" y="271.8" fill="#000000" font-family="Verdana" font-size="12">nom</text>
	<text x="274" y="288.8" fill="#000000" font-family="Verdana" font-size="12">email</text>
	<text x="274" y="305.8" fill="#000000" font-family="Verdana" font-size="12">mot_de_passe</text>
	<text x="274" y="322.8" fill="#000000" font-family="Verdana" font-size="12">last_login</text>
	<text x="274" y="339.8" fill="#000000" font-family="Verdana" font-size="12">date_inscription</text>
	<text x="274" y="356.8" fill="#000000" font-family="Verdana" font-size="12">reset_token</text>
	<text x="274" y="373.8" fill="#000000" font-family="Verdana" font-size="12">alert_suppression_envoyee</text>
</g>

<!-- Entity EMPRUNTS -->
<g>
	<g>
		<rect x="144" y="440" width="110" height="25" fill="#b2abd2" stroke="none" stroke-width="0" opacity="1"/>
		<rect x="144" y="465" width="110" height="93" fill="#d8daeb" stroke="none" stroke-width="0" opacity="1"/>
		<rect x="144" y="440" width="110" height="118" fill="none" stroke="#8073ac" stroke-width="2" opacity="1"/>
		<line x1="144" y1="465" x2="254" y2="465" stroke="#8073ac" stroke-width="1"/>
	</g>
	<text x="165" y="457.75" fill="#000000" font-family="Verdana" font-size="12">EMPRUNTS</text>
	<text x="149" y="482.8" fill="#000000" font-family="Verdana" font-size="12">code_emprunts:</text>
	<line x1="149" y1="485" x2="249" y2="485" stroke="#000000" stroke-width="1"/>
	<text x="149" y="499.8" fill="#000000" font-family="Verdana" font-size="12">id</text>
	<text x="149" y="516.8" fill="#000000" font-family="Verdana" font-size="12">date_emprunt</text>
	<text x="149" y="533.8" fill="#000000" font-family="Verdana" font-size="12">date_retour</text>
	<text x="149" y="550.8" fill="#000000" font-family="Verdana" font-size="12">rendu</text>
</g>

<!-- Entity ROLES -->
<g>
	<g>
		<rect x="477" y="457" width="82" height="25" fill="#b2abd2" stroke="none" stroke-width="0" opacity="1"/>
		<rect x="477" y="482" width="82" height="59" fill="#d8daeb" stroke="none" stroke-width="0" opacity="1"/>
		<rect x="477" y="457" width="82" height="84" fill="none" stroke="#8073ac" stroke-width="2" opacity="1"/>
		<line x1="477" y1="482" x2="559" y2="482" stroke="#8073ac" stroke-width="1"/>
	</g>
	<text x="498" y="474.75" fill="#000000" font-family="Verdana" font-size="12">ROLES</text>
	<text x="482" y="499.8" fill="#000000" font-family="Verdana" font-size="12">code_roles:</text>
	<line x1="482" y1="502" x2="553" y2="502" stroke="#000000" stroke-width="1"/>
	<text x="482" y="516.8" fill="#000000" font-family="Verdana" font-size="12">id</text>
	<text x="482" y="533.8" fill="#000000" font-family="Verdana" font-size="12">nom</text>
</g>
</svg>